<mxfile host="65bd71144e">
    <diagram id="fjN8D4Odn0497USpxgly" name="Page-1">
        <mxGraphModel dx="1065" dy="1678" grid="1" gridSize="10" guides="1" tooltips="1" connect="1" arrows="1" fold="1" page="1" pageScale="1" pageWidth="1169" pageHeight="827" background="#ffffff" math="0" shadow="0">
            <root>
                <mxCell id="0"/>
                <mxCell id="1" parent="0"/>
                <mxCell id="535" value="Add instance to configuration schema" style="rounded=0;whiteSpace=wrap;html=1;fillColor=#f5f5f5;strokeColor=#666666;fontColor=#333333;" parent="1" vertex="1">
                    <mxGeometry x="610" y="-687" width="210" height="73" as="geometry"/>
                </mxCell>
                <mxCell id="534" value="Register configuration schema" style="rounded=0;whiteSpace=wrap;html=1;fillColor=#f5f5f5;strokeColor=#666666;fontColor=#333333;" parent="1" vertex="1">
                    <mxGeometry x="610" y="-760" width="210" height="73" as="geometry"/>
                </mxCell>
                <mxCell id="523" value="&lt;b&gt;Description&lt;/b&gt;" style="rounded=0;whiteSpace=wrap;html=1;align=center;fillColor=#dae8fc;strokeColor=#6c8ebf;" parent="1" vertex="1">
                    <mxGeometry x="610" y="-800" width="210" height="40" as="geometry"/>
                </mxCell>
                <mxCell id="520" value="&lt;b&gt;Name&lt;/b&gt;" style="rounded=0;whiteSpace=wrap;html=1;align=center;fillColor=#dae8fc;strokeColor=#6c8ebf;" parent="1" vertex="1">
                    <mxGeometry x="40" y="-800" width="160" height="40" as="geometry"/>
                </mxCell>
                <mxCell id="602" value="" style="rounded=0;whiteSpace=wrap;html=1;fillColor=#d5e8d4;strokeColor=#82b366;" vertex="1" parent="1">
                    <mxGeometry x="260" y="-760" width="350" height="73" as="geometry"/>
                </mxCell>
                <mxCell id="603" value="namespace_id" style="rounded=0;whiteSpace=wrap;html=1;" vertex="1" parent="1">
                    <mxGeometry x="271" y="-751.75" width="89" height="23.5" as="geometry"/>
                </mxCell>
                <mxCell id="604" value="Namespace ID" style="rounded=0;whiteSpace=wrap;html=1;" vertex="1" parent="1">
                    <mxGeometry x="360" y="-751.75" width="90" height="23.5" as="geometry"/>
                </mxCell>
                <mxCell id="605" value="&lt;b&gt;Parameters&lt;/b&gt;" style="rounded=0;whiteSpace=wrap;html=1;align=center;fillColor=#dae8fc;strokeColor=#6c8ebf;" vertex="1" parent="1">
                    <mxGeometry x="260.5" y="-800" width="349.5" height="40" as="geometry"/>
                </mxCell>
                <mxCell id="606" value="schema" style="rounded=0;whiteSpace=wrap;html=1;" vertex="1" parent="1">
                    <mxGeometry x="271" y="-720" width="59" height="23.5" as="geometry"/>
                </mxCell>
                <mxCell id="607" value="Configuration Schema *" style="rounded=0;whiteSpace=wrap;html=1;" vertex="1" parent="1">
                    <mxGeometry x="330" y="-720" width="140" height="23.5" as="geometry"/>
                </mxCell>
                <mxCell id="540" value="int" style="rounded=0;whiteSpace=wrap;html=1;fillColor=#fff2cc;strokeColor=#d6b656;" vertex="1" parent="1">
                    <mxGeometry x="200" y="-760" width="60" height="73" as="geometry"/>
                </mxCell>
                <mxCell id="522" value="&lt;b&gt;Returns&lt;/b&gt;" style="rounded=0;whiteSpace=wrap;html=1;align=center;fillColor=#dae8fc;strokeColor=#6c8ebf;" parent="1" vertex="1">
                    <mxGeometry x="200" y="-800" width="60.5" height="40" as="geometry"/>
                </mxCell>
                <mxCell id="483" value="register_schema" style="rounded=0;whiteSpace=wrap;html=1;fillColor=#e1d5e7;strokeColor=#9673a6;" parent="1" vertex="1">
                    <mxGeometry x="40" y="-760" width="160" height="73" as="geometry"/>
                </mxCell>
                <mxCell id="612" value="" style="rounded=0;whiteSpace=wrap;html=1;fillColor=#d5e8d4;strokeColor=#82b366;" vertex="1" parent="1">
                    <mxGeometry x="259.5" y="-687" width="350.5" height="73" as="geometry"/>
                </mxCell>
                <mxCell id="613" value="namespace_id" style="rounded=0;whiteSpace=wrap;html=1;" vertex="1" parent="1">
                    <mxGeometry x="270.5" y="-678.75" width="89" height="23.5" as="geometry"/>
                </mxCell>
                <mxCell id="614" value="Namespace ID" style="rounded=0;whiteSpace=wrap;html=1;" vertex="1" parent="1">
                    <mxGeometry x="359.5" y="-678.75" width="90" height="23.5" as="geometry"/>
                </mxCell>
                <mxCell id="615" value="instance" style="rounded=0;whiteSpace=wrap;html=1;" vertex="1" parent="1">
                    <mxGeometry x="270.5" y="-647" width="69" height="23.5" as="geometry"/>
                </mxCell>
                <mxCell id="616" value="Schema Instance *" style="rounded=0;whiteSpace=wrap;html=1;" vertex="1" parent="1">
                    <mxGeometry x="339.5" y="-647" width="128.5" height="23.5" as="geometry"/>
                </mxCell>
                <mxCell id="551" value="int" style="rounded=0;whiteSpace=wrap;html=1;fillColor=#fff2cc;strokeColor=#d6b656;" vertex="1" parent="1">
                    <mxGeometry x="200" y="-687" width="60" height="73" as="geometry"/>
                </mxCell>
                <mxCell id="482" value="register_schema_instance" style="rounded=0;whiteSpace=wrap;html=1;fillColor=#e1d5e7;strokeColor=#9673a6;" parent="1" vertex="1">
                    <mxGeometry x="40" y="-687" width="160" height="73" as="geometry"/>
                </mxCell>
                <mxCell id="617" value="schema_id" style="rounded=0;whiteSpace=wrap;html=1;" vertex="1" parent="1">
                    <mxGeometry x="460" y="-678.75" width="69" height="23.5" as="geometry"/>
                </mxCell>
                <mxCell id="618" value="Registry ID" style="rounded=0;whiteSpace=wrap;html=1;" vertex="1" parent="1">
                    <mxGeometry x="529" y="-678.75" width="71" height="23.5" as="geometry"/>
                </mxCell>
            </root>
        </mxGraphModel>
    </diagram>
</mxfile>